<svg width="771" height="621" viewBox="0 0 771 621" fill="none" xmlns="http://www.w3.org/2000/svg">
<path d="M706.42 464.029C697.947 478.784 681.375 488.118 658.39 492.215C635.411 496.31 606.168 495.14 572.617 489.016C505.524 476.769 421.43 444.754 336.267 395.846C251.104 346.937 181.07 290.439 136.679 238.662C114.481 212.77 98.7317 188.102 90.6884 166.191C82.6427 144.273 82.3527 125.256 90.8261 110.501C99.2996 95.7467 115.871 86.4129 138.857 82.3162C161.835 78.2206 191.079 79.3908 224.63 85.515C291.722 97.7617 375.816 129.777 460.979 178.685C546.143 227.593 616.176 284.091 660.567 335.868C682.766 361.761 698.515 386.429 706.558 408.34C714.604 430.257 714.894 449.275 706.42 464.029Z" stroke="black" stroke-width="2"/>
<path d="M679.728 510.507C671.255 525.262 654.683 534.596 631.698 538.692C608.72 542.788 579.476 541.618 545.925 535.493C478.832 523.247 394.739 491.231 309.575 442.323C224.412 393.415 154.378 336.917 109.987 285.14C87.7889 259.248 72.04 234.579 63.9967 212.668C55.9511 190.751 55.6611 171.734 64.1345 156.979C72.6079 142.224 89.1796 132.891 112.165 128.794C135.143 124.698 164.387 125.868 197.938 131.993C265.031 144.239 349.124 176.255 434.288 225.163C519.451 274.071 589.485 330.569 633.875 382.346C656.074 408.238 671.823 432.907 679.866 454.818C687.912 476.735 688.202 495.752 679.728 510.507Z" stroke="black" stroke-width="2"/>
</svg>
