<svg width="771" height="621" fill="none" xmlns="http://www.w3.org/2000/svg"><path d="M706.42 464.029c-8.473 14.755-25.045 24.089-48.03 28.186-22.979 4.095-52.222 2.925-85.773-3.199-67.093-12.247-151.187-44.262-236.35-93.17-85.163-48.909-155.197-105.407-199.588-157.184-22.198-25.892-37.947-50.56-45.99-72.471-8.046-21.918-8.336-40.935.137-55.69 8.474-14.754 25.045-24.088 48.031-28.185 22.978-4.095 52.222-2.925 85.773 3.199 67.092 12.247 151.186 44.262 236.349 93.17 85.164 48.908 155.197 105.406 199.588 157.183 22.199 25.893 37.948 50.561 45.991 72.472 8.046 21.917 8.336 40.935-.138 55.689Z" stroke="#000" stroke-width="2"/><path d="M679.728 510.507c-8.473 14.755-25.045 24.089-48.03 28.185-22.978 4.096-52.222 2.926-85.773-3.199-67.093-12.246-151.186-44.262-236.35-93.17-85.163-48.908-155.197-105.406-199.588-157.183-22.198-25.892-37.947-50.561-45.99-72.472-8.046-21.917-8.336-40.934.138-55.689 8.473-14.755 25.045-24.088 48.03-28.185 22.978-4.096 52.222-2.926 85.773 3.199 67.093 12.246 151.186 44.262 236.35 93.17 85.163 48.908 155.197 105.406 199.587 157.183 22.199 25.892 37.948 50.561 45.991 72.472 8.046 21.917 8.336 40.934-.138 55.689Z" stroke="#000" stroke-width="2"/></svg>