<svg width="4.5em" height="4.5em" xmlns="http://www.w3.org/2000/svg" viewBox="0 0 64 64" style="-ms-transform:rotate(360deg);-webkit-transform:rotate(360deg);transform:rotate(360deg)"><path fill="#fff" d="M38.2 34.6 64 32l-25.8-2.6 16.4-20-20 16.4L32 0l-2.6 25.8-20-16.4 16.4 20L0 32l25.8 2.6-16.4 20 20-16.4L32 64l2.6-25.8 20 16.4z"/><path xmlns="http://www.w3.org/2000/svg" fill="#fff" d="M38.2 34.6 64 32l-25.8-2.6 16.4-20-20 16.4L32 0l-2.6 25.8-20-16.4 16.4 20L0 32l25.8 2.6-16.4 20 20-16.4L32 64l2.6-25.8 20 16.4z"/></svg>