<svg width="121" height="80" fill="none" xmlns="http://www.w3.org/2000/svg"><circle cx="63.375" cy="39.617" r="25.931" fill="#A6D9DD"/><path fill-rule="evenodd" clip-rule="evenodd" d="M25.64 42.724c-.669-.342-1.325-.701-1.968-1.075C7.039 53.459-2.47 63.927.559 68.407c4.5 6.659 34.986-2.425 68.09-20.288 33.105-17.864 56.293-37.743 51.792-44.401-2.839-4.2-16.02-2.136-33.677 4.446.058.68.096 1.365.112 2.055 3.898-1.47 7.578-2.722 10.974-3.734 6.09-1.814 11.165-2.83 14.915-3.011 1.879-.091 3.308.034 4.32.303 1 .267 1.414.621 1.596.89.182.27.341.762.139 1.677-.204.926-.746 2.114-1.71 3.558-1.926 2.88-5.293 6.42-9.926 10.392-9.24 7.922-23.188 17.282-39.655 26.168C51.062 55.346 35.298 62.02 23.15 65.64c-6.09 1.814-11.164 2.829-14.914 3.01-1.879.092-3.308-.033-4.32-.302-1-.267-1.414-.621-1.596-.89-.182-.27-.34-.762-.14-1.677.205-.926.747-2.114 1.711-3.558 1.926-2.88 5.293-6.421 9.926-10.392 3.355-2.877 7.331-5.943 11.823-9.107Z" fill="#000"/><circle cx="63.375" cy="39.617" r="38.617" stroke="#000" stroke-width="2"/></svg>